<svg version="1.0" xmlns="http://www.w3.org/2000/svg" width="512.000000ptpx" height="512.000000ptpx" viewBox="0 0 512.000000 512.000000" preserveAspectRatio="xMidYMid meet" transform="rotate(0) scale(1, 1)">

<g transform="translate(0.000000,512.000000) scale(0.100000,-0.100000)" fill="#f57c00" stroke="none">
<path d="M95 4786 c-94 -41 -124 -168 -58 -247 49 -57 60 -59 425 -59 l333 0&#10;405 -1627 c268 -1075 412 -1637 425 -1657 11 -16 33 -39 48 -50 l28 -21 1347&#10;-2 1347 -3 40 23 c43 24 85 91 85 137 0 46 -42 113 -85 137 l-40 23 -1256 0&#10;-1257 0 -60 240 -60 240 1375 0 c1137 0 1379 2 1406 14 76 31 64 -6 332 1068&#10;269 1077 261 1035 208 1099 -53 63 84 59 -1985 59 l-1893 0 -69 276 c-74 297&#10;-85 322 -153 350 -47 20 -843 20 -888 0z m1825 -952 c0 -12 70 -569 75 -601&#10;l6 -33 -278 0 -278 0 -78 313 c-43 171 -77 315 -77 320 0 8 630 10 630 1z&#10;m940 -314 l0 -320 -270 0 c-148 0 -270 3 -270 6 0 12 -70 569 -75 602 l-6 32&#10;311 0 310 0 0 -320z m935 288 c-5 -33 -75 -590 -75 -602 0 -3 -121 -6 -270 -6&#10;l-270 0 0 320 0 320 310 0 311 0 -6 -32z m955 25 c0 -5 -34 -149 -77 -320&#10;l-78 -313 -278 0 -278 0 6 33 c5 32 75 589 75 601 0 9 630 7 630 -1z m-2710&#10;-959 c0 -12 70 -569 75 -601 l6 -33 -218 0 -218 0 -78 313 c-43 171 -77 315&#10;-77 320 0 8 510 10 510 1z m820 -314 l0 -320 -210 0 c-115 0 -210 3 -210 6 0&#10;12 -70 569 -75 602 l-6 32 251 0 250 0 0 -320z m815 288 c-5 -33 -75 -590 -75&#10;-602 0 -3 -94 -6 -210 -6 l-210 0 0 320 0 320 250 0 251 0 -6 -32z m835 25 c0&#10;-5 -34 -149 -77 -320 l-78 -313 -218 0 -218 0 6 33 c5 32 75 589 75 601 0 9&#10;510 7 510 -1z"/>
<path d="M1940 943 c-226 -79 -293 -361 -126 -528 66 -66 126 -89 226 -90 73&#10;0 92 4 136 27 76 40 107 70 145 140 31 57 34 71 34 148 0 79 -3 90 -36 150&#10;-76 138 -236 203 -379 153z"/>
<path d="M3900 943 c-226 -79 -293 -361 -126 -528 66 -66 126 -89 226 -90 78&#10;0 90 3 148 34 110 60 166 156 167 282 0 67 -4 84 -35 145 -72 141 -234 208&#10;-380 157z"/>
</g>
</svg>